<svg xmlns="http://www.w3.org/2000/svg" xmlns:xlink="http://www.w3.org/1999/xlink" width="1056" zoomAndPan="magnify" viewBox="0 0 792 287.999989" height="384" preserveAspectRatio="xMidYMid meet" version="1.2"><defs/><g id="545e7c355b"><g style="fill:#1e1c1d;fill-opacity:1;"><g transform="translate(102.690891, 135.528702)"><path style="stroke:none" d="M 80.765625 -76.78125 C 80.765625 -73.550781 80.3125 -70.722656 79.40625 -68.296875 C 78.5 -65.867188 77.25 -63.742188 75.65625 -61.921875 C 74.070312 -60.097656 72.191406 -58.566406 70.015625 -57.328125 C 67.847656 -56.097656 65.503906 -55.0625 62.984375 -54.21875 L 62.984375 -53.65625 C 66.242188 -53.09375 69.226562 -52.132812 71.9375 -50.78125 C 74.644531 -49.425781 76.96875 -47.660156 78.90625 -45.484375 C 80.851562 -43.316406 82.363281 -40.75 83.4375 -37.78125 C 84.507812 -34.820312 85.046875 -31.453125 85.046875 -27.671875 C 85.046875 -18.421875 82.007812 -11.492188 75.9375 -6.890625 C 69.863281 -2.296875 60.617188 0 48.203125 0 L 5.46875 0 L 5.46875 -6.03125 L 7.28125 -6.03125 C 8.914062 -6.03125 10.445312 -6.144531 11.875 -6.375 C 13.300781 -6.601562 14.550781 -7.078125 15.625 -7.796875 C 16.695312 -8.523438 17.535156 -9.566406 18.140625 -10.921875 C 18.742188 -12.273438 19.046875 -14.078125 19.046875 -16.328125 L 19.046875 -86.65625 C 19.046875 -88.757812 18.726562 -90.453125 18.09375 -91.734375 C 17.46875 -93.015625 16.617188 -94.003906 15.546875 -94.703125 C 14.472656 -95.410156 13.222656 -95.867188 11.796875 -96.078125 C 10.378906 -96.285156 8.875 -96.390625 7.28125 -96.390625 L 5.46875 -96.390625 L 5.46875 -102.421875 L 43.921875 -102.421875 C 56.347656 -102.421875 65.59375 -100.351562 71.65625 -96.21875 C 77.726562 -92.082031 80.765625 -85.601562 80.765625 -76.78125 Z M 33.5625 -7.140625 L 47.5 -7.140625 C 51.5625 -7.140625 54.992188 -7.515625 57.796875 -8.265625 C 60.597656 -9.015625 62.882812 -10.21875 64.65625 -11.875 C 66.4375 -13.53125 67.722656 -15.6875 68.515625 -18.34375 C 69.304688 -21.007812 69.703125 -24.257812 69.703125 -28.09375 C 69.703125 -31.832031 69.347656 -35.078125 68.640625 -37.828125 C 67.941406 -40.585938 66.738281 -42.875 65.03125 -44.6875 C 63.332031 -46.507812 61.082031 -47.863281 58.28125 -48.75 C 55.476562 -49.644531 51.976562 -50.09375 47.78125 -50.09375 L 33.5625 -50.09375 Z M 33.5625 -57.234375 L 43.5 -57.234375 C 47.707031 -57.234375 51.210938 -57.601562 54.015625 -58.34375 C 56.816406 -59.09375 59.054688 -60.25 60.734375 -61.8125 C 62.421875 -63.382812 63.625 -65.40625 64.34375 -67.875 C 65.0625 -70.351562 65.421875 -73.320312 65.421875 -76.78125 C 65.421875 -80.28125 65.023438 -83.207031 64.234375 -85.5625 C 63.441406 -87.925781 62.15625 -89.832031 60.375 -91.28125 C 58.601562 -92.726562 56.304688 -93.753906 53.484375 -94.359375 C 50.660156 -94.960938 47.21875 -95.265625 43.15625 -95.265625 L 33.5625 -95.265625 Z M 33.5625 -57.234375 "/></g></g><g style="fill:#1e1c1d;fill-opacity:1;"><g transform="translate(191.90129, 135.528702)"><path style="stroke:none" d="M 79.515625 -17.515625 C 81.941406 -13.679688 84.296875 -10.804688 86.578125 -8.890625 C 88.867188 -6.984375 91.535156 -6.03125 94.578125 -6.03125 L 94.984375 -6.03125 L 94.984375 0 L 92.953125 0 C 88.472656 0 84.796875 -0.160156 81.921875 -0.484375 C 79.054688 -0.816406 76.617188 -1.445312 74.609375 -2.375 C 72.597656 -3.3125 70.878906 -4.617188 69.453125 -6.296875 C 68.035156 -7.984375 66.507812 -10.179688 64.875 -12.890625 L 45.46875 -45.1875 L 33.5625 -45.1875 L 33.5625 -15.625 C 33.5625 -13.519531 33.875 -11.820312 34.5 -10.53125 C 35.132812 -9.25 35.988281 -8.28125 37.0625 -7.625 C 38.132812 -6.976562 39.378906 -6.550781 40.796875 -6.34375 C 42.222656 -6.132812 43.734375 -6.03125 45.328125 -6.03125 L 47.21875 -6.03125 L 47.21875 0 L 5.46875 0 L 5.46875 -6.03125 L 7.28125 -6.03125 C 8.875 -6.03125 10.378906 -6.132812 11.796875 -6.34375 C 13.222656 -6.550781 14.472656 -6.976562 15.546875 -7.625 C 16.617188 -8.28125 17.46875 -9.25 18.09375 -10.53125 C 18.726562 -11.820312 19.046875 -13.519531 19.046875 -15.625 L 19.046875 -86.65625 C 19.046875 -88.757812 18.726562 -90.453125 18.09375 -91.734375 C 17.46875 -93.015625 16.617188 -94.003906 15.546875 -94.703125 C 14.472656 -95.410156 13.222656 -95.867188 11.796875 -96.078125 C 10.378906 -96.285156 8.875 -96.390625 7.28125 -96.390625 L 5.46875 -96.390625 L 5.46875 -102.421875 L 44.0625 -102.421875 C 56.488281 -102.421875 65.734375 -100.117188 71.796875 -95.515625 C 77.867188 -90.910156 80.90625 -83.988281 80.90625 -74.75 C 80.90625 -70.914062 80.285156 -67.5625 79.046875 -64.6875 C 77.816406 -61.820312 76.195312 -59.335938 74.1875 -57.234375 C 72.175781 -55.128906 69.910156 -53.375 67.390625 -51.96875 C 64.867188 -50.570312 62.347656 -49.453125 59.828125 -48.609375 Z M 33.5625 -51.90625 L 43.640625 -51.90625 C 47.847656 -51.90625 51.351562 -52.375 54.15625 -53.3125 C 56.957031 -54.25 59.195312 -55.648438 60.875 -57.515625 C 62.550781 -59.378906 63.75 -61.710938 64.46875 -64.515625 C 65.195312 -67.316406 65.5625 -70.585938 65.5625 -74.328125 C 65.5625 -78.160156 65.164062 -81.414062 64.375 -84.09375 C 63.582031 -86.78125 62.296875 -88.972656 60.515625 -90.671875 C 58.742188 -92.378906 56.445312 -93.617188 53.625 -94.390625 C 50.800781 -95.160156 47.359375 -95.546875 43.296875 -95.546875 L 33.5625 -95.546875 Z M 33.5625 -51.90625 "/></g></g><g style="fill:#1e1c1d;fill-opacity:1;"><g transform="translate(281.391916, 135.528702)"><path style="stroke:none" d="M 5.46875 0 L 5.46875 -6.03125 L 7.28125 -6.03125 C 8.914062 -6.03125 10.445312 -6.144531 11.875 -6.375 C 13.300781 -6.601562 14.550781 -7.078125 15.625 -7.796875 C 16.695312 -8.523438 17.535156 -9.566406 18.140625 -10.921875 C 18.742188 -12.273438 19.046875 -14.078125 19.046875 -16.328125 L 19.046875 -86.09375 C 19.046875 -88.332031 18.742188 -90.128906 18.140625 -91.484375 C 17.535156 -92.835938 16.695312 -93.875 15.625 -94.59375 C 14.550781 -95.320312 13.300781 -95.800781 11.875 -96.03125 C 10.445312 -96.269531 8.914062 -96.390625 7.28125 -96.390625 L 5.46875 -96.390625 L 5.46875 -102.421875 L 47.21875 -102.421875 L 47.21875 -96.390625 L 45.328125 -96.390625 C 43.734375 -96.390625 42.210938 -96.269531 40.765625 -96.03125 C 39.316406 -95.800781 38.066406 -95.320312 37.015625 -94.59375 C 35.972656 -93.875 35.132812 -92.835938 34.5 -91.484375 C 33.875 -90.128906 33.5625 -88.332031 33.5625 -86.09375 L 33.5625 -16.328125 C 33.5625 -14.078125 33.875 -12.273438 34.5 -10.921875 C 35.132812 -9.566406 35.972656 -8.523438 37.015625 -7.796875 C 38.066406 -7.078125 39.316406 -6.601562 40.765625 -6.375 C 42.210938 -6.144531 43.734375 -6.03125 45.328125 -6.03125 L 47.21875 -6.03125 L 47.21875 0 Z M 5.46875 0 "/></g></g><g style="fill:#1e1c1d;fill-opacity:1;"><g transform="translate(329.480965, 135.528702)"><path style="stroke:none" d="M 51.0625 -16.328125 C 51.0625 -14.078125 51.375 -12.273438 52 -10.921875 C 52.632812 -9.566406 53.476562 -8.523438 54.53125 -7.796875 C 55.582031 -7.078125 56.832031 -6.601562 58.28125 -6.375 C 59.726562 -6.144531 61.25 -6.03125 62.84375 -6.03125 L 66.125 -6.03125 L 66.125 0 L 21.5 0 L 21.5 -6.03125 L 24.796875 -6.03125 C 26.390625 -6.03125 27.894531 -6.132812 29.3125 -6.34375 C 30.738281 -6.550781 31.988281 -6.976562 33.0625 -7.625 C 34.132812 -8.28125 34.984375 -9.25 35.609375 -10.53125 C 36.242188 -11.820312 36.5625 -13.519531 36.5625 -15.625 L 36.5625 -95.265625 L 22.84375 -95.265625 C 20.738281 -95.265625 18.972656 -94.945312 17.546875 -94.3125 C 16.117188 -93.6875 14.945312 -92.835938 14.03125 -91.765625 C 13.125 -90.691406 12.445312 -89.441406 12 -88.015625 C 11.5625 -86.597656 11.25 -85.09375 11.0625 -83.5 L 10.296875 -77.34375 L 2.875 -77.34375 L 3.578125 -102.421875 L 84.34375 -102.421875 L 85.046875 -77.34375 L 77.625 -77.34375 L 76.921875 -83.5 C 76.734375 -85.09375 76.40625 -86.597656 75.9375 -88.015625 C 75.46875 -89.441406 74.789062 -90.691406 73.90625 -91.765625 C 73.019531 -92.835938 71.851562 -93.6875 70.40625 -94.3125 C 68.957031 -94.945312 67.160156 -95.265625 65.015625 -95.265625 L 51.0625 -95.265625 Z M 51.0625 -16.328125 "/></g></g><g style="fill:#1e1c1d;fill-opacity:1;"><g transform="translate(412.806877, 135.528702)"><path style="stroke:none" d="M 81.609375 0 L 27.8125 -82.65625 L 27.8125 -16.328125 C 27.8125 -14.078125 28.125 -12.273438 28.75 -10.921875 C 29.382812 -9.566406 30.226562 -8.523438 31.28125 -7.796875 C 32.332031 -7.078125 33.582031 -6.601562 35.03125 -6.375 C 36.476562 -6.144531 37.992188 -6.03125 39.578125 -6.03125 L 41.46875 -6.03125 L 41.46875 0 L 5.46875 0 L 5.46875 -6.03125 L 7.28125 -6.03125 C 8.914062 -6.03125 10.445312 -6.144531 11.875 -6.375 C 13.300781 -6.601562 14.550781 -7.078125 15.625 -7.796875 C 16.695312 -8.523438 17.535156 -9.566406 18.140625 -10.921875 C 18.742188 -12.273438 19.046875 -14.078125 19.046875 -16.328125 L 19.046875 -86.65625 C 19.046875 -88.757812 18.726562 -90.453125 18.09375 -91.734375 C 17.46875 -93.015625 16.617188 -94.003906 15.546875 -94.703125 C 14.472656 -95.410156 13.222656 -95.867188 11.796875 -96.078125 C 10.378906 -96.285156 8.875 -96.390625 7.28125 -96.390625 L 5.46875 -96.390625 L 5.46875 -102.421875 L 31.734375 -102.421875 L 83.078125 -23.125 L 83.078125 -86.65625 C 83.078125 -88.757812 82.757812 -90.453125 82.125 -91.734375 C 81.5 -93.015625 80.648438 -94.003906 79.578125 -94.703125 C 78.503906 -95.410156 77.253906 -95.867188 75.828125 -96.078125 C 74.410156 -96.285156 72.90625 -96.390625 71.3125 -96.390625 L 69.421875 -96.390625 L 69.421875 -102.421875 L 105.4375 -102.421875 L 105.4375 -96.390625 L 103.609375 -96.390625 C 101.972656 -96.390625 100.441406 -96.269531 99.015625 -96.03125 C 97.597656 -95.800781 96.347656 -95.320312 95.265625 -94.59375 C 94.191406 -93.875 93.351562 -92.835938 92.75 -91.484375 C 92.144531 -90.128906 91.84375 -88.332031 91.84375 -86.09375 L 91.84375 0 Z M 81.609375 0 "/></g></g><g style="fill:#1e1c1d;fill-opacity:1;"><g transform="translate(517.709224, 135.528702)"><path style="stroke:none" d="M 33.5625 -7.140625 L 61.21875 -7.140625 C 63.507812 -7.140625 65.460938 -7.453125 67.078125 -8.078125 C 68.691406 -8.710938 70.035156 -9.566406 71.109375 -10.640625 C 72.179688 -11.722656 73.019531 -12.972656 73.625 -14.390625 C 74.226562 -15.816406 74.648438 -17.328125 74.890625 -18.921875 L 75.875 -25.078125 L 83.359375 -25.078125 L 82.375 0 L 5.46875 0 L 5.46875 -6.03125 L 7.28125 -6.03125 C 8.875 -6.03125 10.378906 -6.132812 11.796875 -6.34375 C 13.222656 -6.550781 14.472656 -6.976562 15.546875 -7.625 C 16.617188 -8.28125 17.46875 -9.25 18.09375 -10.53125 C 18.726562 -11.820312 19.046875 -13.519531 19.046875 -15.625 L 19.046875 -86.09375 C 19.046875 -88.332031 18.742188 -90.128906 18.140625 -91.484375 C 17.535156 -92.835938 16.695312 -93.875 15.625 -94.59375 C 14.550781 -95.320312 13.300781 -95.800781 11.875 -96.03125 C 10.445312 -96.269531 8.914062 -96.390625 7.28125 -96.390625 L 5.46875 -96.390625 L 5.46875 -102.421875 L 77.765625 -102.421875 L 78.453125 -77.34375 L 71.03125 -77.34375 L 70.328125 -83.5 C 70.140625 -85.09375 69.773438 -86.597656 69.234375 -88.015625 C 68.703125 -89.441406 67.929688 -90.691406 66.921875 -91.765625 C 65.921875 -92.835938 64.660156 -93.6875 63.140625 -94.3125 C 61.628906 -94.945312 59.800781 -95.265625 57.65625 -95.265625 L 33.5625 -95.265625 L 33.5625 -57.09375 L 68.15625 -57.09375 L 68.15625 -50.09375 L 33.5625 -50.09375 Z M 33.5625 -7.140625 "/></g></g><g style="fill:#1e1c1d;fill-opacity:1;"><g transform="translate(599.63408, 135.528702)"><path style="stroke:none" d="M 22.84375 0 L 22.84375 -6.03125 L 26.125 -6.03125 C 27.71875 -6.03125 29.222656 -6.132812 30.640625 -6.34375 C 32.066406 -6.550781 33.316406 -6.976562 34.390625 -7.625 C 35.460938 -8.28125 36.316406 -9.25 36.953125 -10.53125 C 37.585938 -11.820312 37.90625 -13.519531 37.90625 -15.625 L 37.90625 -42.734375 L 11.34375 -88.828125 C 10.550781 -90.179688 9.804688 -91.335938 9.109375 -92.296875 C 8.410156 -93.253906 7.675781 -94.035156 6.90625 -94.640625 C 6.132812 -95.242188 5.28125 -95.6875 4.34375 -95.96875 C 3.40625 -96.25 2.332031 -96.390625 1.125 -96.390625 L -0.703125 -96.390625 L -0.703125 -102.421875 L 38.734375 -102.421875 L 38.734375 -96.390625 L 33.421875 -96.390625 C 32.109375 -96.390625 31.039062 -96.269531 30.21875 -96.03125 C 29.40625 -95.800781 28.765625 -95.476562 28.296875 -95.0625 C 27.828125 -94.644531 27.507812 -94.15625 27.34375 -93.59375 C 27.1875 -93.03125 27.109375 -92.445312 27.109375 -91.84375 C 27.109375 -90.488281 27.398438 -89.132812 27.984375 -87.78125 C 28.566406 -86.425781 29.140625 -85.234375 29.703125 -84.203125 L 40.28125 -65.015625 C 41.957031 -62.066406 43.378906 -59.15625 44.546875 -56.28125 C 45.722656 -53.414062 46.707031 -50.859375 47.5 -48.609375 C 47.914062 -49.640625 48.4375 -50.785156 49.0625 -52.046875 C 49.695312 -53.304688 50.398438 -54.648438 51.171875 -56.078125 C 51.941406 -57.503906 52.75 -58.972656 53.59375 -60.484375 C 54.4375 -62.003906 55.273438 -63.515625 56.109375 -65.015625 L 65.296875 -81.46875 C 66.222656 -83.101562 66.882812 -84.65625 67.28125 -86.125 C 67.675781 -87.601562 67.875 -88.925781 67.875 -90.09375 C 67.875 -92.1875 67.125 -93.757812 65.625 -94.8125 C 64.132812 -95.863281 62.015625 -96.390625 59.265625 -96.390625 L 55.0625 -96.390625 L 55.0625 -102.421875 L 90.09375 -102.421875 L 90.09375 -96.390625 L 88.40625 -96.390625 C 87.375 -96.390625 86.40625 -96.210938 85.5 -95.859375 C 84.59375 -95.515625 83.671875 -94.910156 82.734375 -94.046875 C 81.796875 -93.179688 80.820312 -92.035156 79.8125 -90.609375 C 78.8125 -89.191406 77.707031 -87.40625 76.5 -85.25 L 52.40625 -42.734375 L 52.40625 -16.328125 C 52.40625 -14.078125 52.707031 -12.273438 53.3125 -10.921875 C 53.914062 -9.566406 54.753906 -8.523438 55.828125 -7.796875 C 56.898438 -7.078125 58.148438 -6.601562 59.578125 -6.375 C 61.003906 -6.144531 62.507812 -6.03125 64.09375 -6.03125 L 67.46875 -6.03125 L 67.46875 0 Z M 22.84375 0 "/></g></g><g style="fill:#1e1c1d;fill-opacity:1;"><g transform="translate(83.941705, 250.453788)"><path style="stroke:none" d="M 33.5625 -95.265625 L 33.5625 -53.796875 L 68.15625 -53.796875 L 68.15625 -46.796875 L 33.5625 -46.796875 L 33.5625 -16.328125 C 33.5625 -14.078125 33.875 -12.273438 34.5 -10.921875 C 35.132812 -9.566406 35.972656 -8.523438 37.015625 -7.796875 C 38.066406 -7.078125 39.316406 -6.601562 40.765625 -6.375 C 42.210938 -6.144531 43.734375 -6.03125 45.328125 -6.03125 L 50.09375 -6.03125 L 50.09375 0 L 5.46875 0 L 5.46875 -6.03125 L 7.28125 -6.03125 C 8.875 -6.03125 10.378906 -6.132812 11.796875 -6.34375 C 13.222656 -6.550781 14.472656 -6.976562 15.546875 -7.625 C 16.617188 -8.28125 17.46875 -9.25 18.09375 -10.53125 C 18.726562 -11.820312 19.046875 -13.519531 19.046875 -15.625 L 19.046875 -86.65625 C 19.046875 -88.757812 18.726562 -90.453125 18.09375 -91.734375 C 17.46875 -93.015625 16.617188 -94.003906 15.546875 -94.703125 C 14.472656 -95.410156 13.222656 -95.867188 11.796875 -96.078125 C 10.378906 -96.285156 8.875 -96.390625 7.28125 -96.390625 L 5.46875 -96.390625 L 5.46875 -102.421875 L 77.765625 -102.421875 L 78.453125 -77.34375 L 71.03125 -77.34375 L 70.328125 -83.5 C 70.140625 -85.132812 69.765625 -86.664062 69.203125 -88.09375 C 68.648438 -89.519531 67.847656 -90.753906 66.796875 -91.796875 C 65.742188 -92.847656 64.421875 -93.6875 62.828125 -94.3125 C 61.242188 -94.945312 59.332031 -95.265625 57.09375 -95.265625 Z M 33.5625 -95.265625 "/></g></g><g style="fill:#1e1c1d;fill-opacity:1;"><g transform="translate(163.96935, 250.453788)"><path style="stroke:none" d="M 98.28125 -51.34375 C 98.28125 -43.457031 97.300781 -36.265625 95.34375 -29.765625 C 93.382812 -23.273438 90.488281 -17.71875 86.65625 -13.09375 C 82.820312 -8.476562 78.101562 -4.90625 72.5 -2.375 C 66.894531 0.144531 60.472656 1.40625 53.234375 1.40625 C 45.628906 1.40625 39 0.144531 33.34375 -2.375 C 27.695312 -4.90625 23.003906 -8.476562 19.265625 -13.09375 C 15.523438 -17.71875 12.722656 -23.285156 10.859375 -29.796875 C 8.992188 -36.316406 8.0625 -43.546875 8.0625 -51.484375 C 8.0625 -59.421875 8.992188 -66.625 10.859375 -73.09375 C 12.722656 -79.5625 15.523438 -85.082031 19.265625 -89.65625 C 23.003906 -94.238281 27.722656 -97.78125 33.421875 -100.28125 C 39.117188 -102.78125 45.769531 -104.03125 53.375 -104.03125 C 60.613281 -104.03125 67.007812 -102.78125 72.5625 -100.28125 C 78.125 -97.78125 82.820312 -94.226562 86.65625 -89.625 C 90.488281 -85.03125 93.382812 -79.5 95.34375 -73.03125 C 97.300781 -66.5625 98.28125 -59.332031 98.28125 -51.34375 Z M 23.953125 -51.34375 C 23.953125 -44.25 24.476562 -37.910156 25.53125 -32.328125 C 26.582031 -26.742188 28.273438 -22.023438 30.609375 -18.171875 C 32.941406 -14.328125 35.960938 -11.390625 39.671875 -9.359375 C 43.390625 -7.328125 47.910156 -6.3125 53.234375 -6.3125 C 58.554688 -6.3125 63.070312 -7.328125 66.78125 -9.359375 C 70.5 -11.390625 73.515625 -14.328125 75.828125 -18.171875 C 78.140625 -22.023438 79.804688 -26.742188 80.828125 -32.328125 C 81.859375 -37.910156 82.375 -44.25 82.375 -51.34375 C 82.375 -58.445312 81.859375 -64.785156 80.828125 -70.359375 C 79.804688 -75.941406 78.140625 -80.648438 75.828125 -84.484375 C 73.515625 -88.316406 70.523438 -91.234375 66.859375 -93.234375 C 63.191406 -95.242188 58.695312 -96.25 53.375 -96.25 C 48.050781 -96.25 43.519531 -95.242188 39.78125 -93.234375 C 36.050781 -91.234375 33.003906 -88.316406 30.640625 -84.484375 C 28.285156 -80.648438 26.582031 -75.941406 25.53125 -70.359375 C 24.476562 -64.785156 23.953125 -58.445312 23.953125 -51.34375 Z M 23.953125 -51.34375 "/></g></g><g style="fill:#1e1c1d;fill-opacity:1;"><g transform="translate(265.852161, 250.453788)"><path style="stroke:none" d="M 79.515625 -17.515625 C 81.941406 -13.679688 84.296875 -10.804688 86.578125 -8.890625 C 88.867188 -6.984375 91.535156 -6.03125 94.578125 -6.03125 L 94.984375 -6.03125 L 94.984375 0 L 92.953125 0 C 88.472656 0 84.796875 -0.160156 81.921875 -0.484375 C 79.054688 -0.816406 76.617188 -1.445312 74.609375 -2.375 C 72.597656 -3.3125 70.878906 -4.617188 69.453125 -6.296875 C 68.035156 -7.984375 66.507812 -10.179688 64.875 -12.890625 L 45.46875 -45.1875 L 33.5625 -45.1875 L 33.5625 -15.625 C 33.5625 -13.519531 33.875 -11.820312 34.5 -10.53125 C 35.132812 -9.25 35.988281 -8.28125 37.0625 -7.625 C 38.132812 -6.976562 39.378906 -6.550781 40.796875 -6.34375 C 42.222656 -6.132812 43.734375 -6.03125 45.328125 -6.03125 L 47.21875 -6.03125 L 47.21875 0 L 5.46875 0 L 5.46875 -6.03125 L 7.28125 -6.03125 C 8.875 -6.03125 10.378906 -6.132812 11.796875 -6.34375 C 13.222656 -6.550781 14.472656 -6.976562 15.546875 -7.625 C 16.617188 -8.28125 17.46875 -9.25 18.09375 -10.53125 C 18.726562 -11.820312 19.046875 -13.519531 19.046875 -15.625 L 19.046875 -86.65625 C 19.046875 -88.757812 18.726562 -90.453125 18.09375 -91.734375 C 17.46875 -93.015625 16.617188 -94.003906 15.546875 -94.703125 C 14.472656 -95.410156 13.222656 -95.867188 11.796875 -96.078125 C 10.378906 -96.285156 8.875 -96.390625 7.28125 -96.390625 L 5.46875 -96.390625 L 5.46875 -102.421875 L 44.0625 -102.421875 C 56.488281 -102.421875 65.734375 -100.117188 71.796875 -95.515625 C 77.867188 -90.910156 80.90625 -83.988281 80.90625 -74.75 C 80.90625 -70.914062 80.285156 -67.5625 79.046875 -64.6875 C 77.816406 -61.820312 76.195312 -59.335938 74.1875 -57.234375 C 72.175781 -55.128906 69.910156 -53.375 67.390625 -51.96875 C 64.867188 -50.570312 62.347656 -49.453125 59.828125 -48.609375 Z M 33.5625 -51.90625 L 43.640625 -51.90625 C 47.847656 -51.90625 51.351562 -52.375 54.15625 -53.3125 C 56.957031 -54.25 59.195312 -55.648438 60.875 -57.515625 C 62.550781 -59.378906 63.75 -61.710938 64.46875 -64.515625 C 65.195312 -67.316406 65.5625 -70.585938 65.5625 -74.328125 C 65.5625 -78.160156 65.164062 -81.414062 64.375 -84.09375 C 63.582031 -86.78125 62.296875 -88.972656 60.515625 -90.671875 C 58.742188 -92.378906 56.445312 -93.617188 53.625 -94.390625 C 50.800781 -95.160156 47.359375 -95.546875 43.296875 -95.546875 L 33.5625 -95.546875 Z M 33.5625 -51.90625 "/></g></g><g style="fill:#1e1c1d;fill-opacity:1;"><g transform="translate(355.336369, 250.453788)"><path style="stroke:none" d="M 35.453125 1.40625 C 30.773438 1.40625 26.648438 0.914062 23.078125 -0.0625 C 19.503906 -1.050781 16.515625 -2.421875 14.109375 -4.171875 C 11.710938 -5.921875 9.90625 -8.046875 8.6875 -10.546875 C 7.46875 -13.046875 6.859375 -15.789062 6.859375 -18.78125 C 6.859375 -21.675781 7.757812 -24.007812 9.5625 -25.78125 C 11.363281 -27.550781 13.921875 -28.4375 17.234375 -28.4375 C 17.367188 -25.445312 17.820312 -22.570312 18.59375 -19.8125 C 19.363281 -17.0625 20.519531 -14.632812 22.0625 -12.53125 C 23.601562 -10.4375 25.566406 -8.757812 27.953125 -7.5 C 30.335938 -6.238281 33.207031 -5.609375 36.5625 -5.609375 C 43.007812 -5.609375 48.039062 -7.160156 51.65625 -10.265625 C 55.28125 -13.367188 57.09375 -17.835938 57.09375 -23.671875 C 57.09375 -26.285156 56.71875 -28.597656 55.96875 -30.609375 C 55.226562 -32.617188 53.992188 -34.472656 52.265625 -36.171875 C 50.535156 -37.878906 48.253906 -39.515625 45.421875 -41.078125 C 42.597656 -42.648438 39.085938 -44.300781 34.890625 -46.03125 C 30.453125 -47.84375 26.570312 -49.785156 23.25 -51.859375 C 19.9375 -53.941406 17.179688 -56.253906 14.984375 -58.796875 C 12.796875 -61.347656 11.160156 -64.1875 10.078125 -67.3125 C 9.003906 -70.445312 8.46875 -73.976562 8.46875 -77.90625 C 8.46875 -82.007812 9.25 -85.671875 10.8125 -88.890625 C 12.382812 -92.117188 14.570312 -94.84375 17.375 -97.0625 C 20.175781 -99.28125 23.488281 -100.972656 27.3125 -102.140625 C 31.144531 -103.304688 35.328125 -103.890625 39.859375 -103.890625 C 44.160156 -103.890625 47.96875 -103.445312 51.28125 -102.5625 C 54.59375 -101.675781 57.394531 -100.484375 59.6875 -98.984375 C 61.976562 -97.492188 63.71875 -95.773438 64.90625 -93.828125 C 66.09375 -91.890625 66.6875 -89.875 66.6875 -87.78125 C 66.6875 -84.695312 65.671875 -82.367188 63.640625 -80.796875 C 61.609375 -79.234375 58.863281 -78.453125 55.40625 -78.453125 C 55.40625 -80.703125 55.132812 -82.910156 54.59375 -85.078125 C 54.0625 -87.253906 53.164062 -89.191406 51.90625 -90.890625 C 50.644531 -92.597656 48.988281 -93.988281 46.9375 -95.0625 C 44.882812 -96.132812 42.335938 -96.671875 39.296875 -96.671875 C 36.546875 -96.671875 34.082031 -96.285156 31.90625 -95.515625 C 29.738281 -94.742188 27.90625 -93.644531 26.40625 -92.21875 C 24.914062 -90.800781 23.769531 -89.085938 22.96875 -87.078125 C 22.175781 -85.066406 21.78125 -82.820312 21.78125 -80.34375 C 21.78125 -77.5 22.15625 -74.988281 22.90625 -72.8125 C 23.65625 -70.644531 24.90625 -68.6875 26.65625 -66.9375 C 28.40625 -65.1875 30.703125 -63.523438 33.546875 -61.953125 C 36.398438 -60.390625 39.90625 -58.769531 44.0625 -57.09375 C 48.269531 -55.363281 52.019531 -53.539062 55.3125 -51.625 C 58.601562 -49.707031 61.390625 -47.570312 63.671875 -45.21875 C 65.960938 -42.863281 67.710938 -40.222656 68.921875 -37.296875 C 70.140625 -34.378906 70.75 -31.078125 70.75 -27.390625 C 70.75 -22.859375 69.921875 -18.804688 68.265625 -15.234375 C 66.609375 -11.660156 64.238281 -8.632812 61.15625 -6.15625 C 58.070312 -3.6875 54.359375 -1.804688 50.015625 -0.515625 C 45.671875 0.765625 40.816406 1.40625 35.453125 1.40625 Z M 35.453125 1.40625 "/></g></g><g style="fill:#1e1c1d;fill-opacity:1;"><g transform="translate(425.907271, 250.453788)"><path style="stroke:none" d="M 22.84375 0 L 22.84375 -6.03125 L 26.125 -6.03125 C 27.71875 -6.03125 29.222656 -6.132812 30.640625 -6.34375 C 32.066406 -6.550781 33.316406 -6.976562 34.390625 -7.625 C 35.460938 -8.28125 36.316406 -9.25 36.953125 -10.53125 C 37.585938 -11.820312 37.90625 -13.519531 37.90625 -15.625 L 37.90625 -42.734375 L 11.34375 -88.828125 C 10.550781 -90.179688 9.804688 -91.335938 9.109375 -92.296875 C 8.410156 -93.253906 7.675781 -94.035156 6.90625 -94.640625 C 6.132812 -95.242188 5.28125 -95.6875 4.34375 -95.96875 C 3.40625 -96.25 2.332031 -96.390625 1.125 -96.390625 L -0.703125 -96.390625 L -0.703125 -102.421875 L 38.734375 -102.421875 L 38.734375 -96.390625 L 33.421875 -96.390625 C 32.109375 -96.390625 31.039062 -96.269531 30.21875 -96.03125 C 29.40625 -95.800781 28.765625 -95.476562 28.296875 -95.0625 C 27.828125 -94.644531 27.507812 -94.15625 27.34375 -93.59375 C 27.1875 -93.03125 27.109375 -92.445312 27.109375 -91.84375 C 27.109375 -90.488281 27.398438 -89.132812 27.984375 -87.78125 C 28.566406 -86.425781 29.140625 -85.234375 29.703125 -84.203125 L 40.28125 -65.015625 C 41.957031 -62.066406 43.378906 -59.15625 44.546875 -56.28125 C 45.722656 -53.414062 46.707031 -50.859375 47.5 -48.609375 C 47.914062 -49.640625 48.4375 -50.785156 49.0625 -52.046875 C 49.695312 -53.304688 50.398438 -54.648438 51.171875 -56.078125 C 51.941406 -57.503906 52.75 -58.972656 53.59375 -60.484375 C 54.4375 -62.003906 55.273438 -63.515625 56.109375 -65.015625 L 65.296875 -81.46875 C 66.222656 -83.101562 66.882812 -84.65625 67.28125 -86.125 C 67.675781 -87.601562 67.875 -88.925781 67.875 -90.09375 C 67.875 -92.1875 67.125 -93.757812 65.625 -94.8125 C 64.132812 -95.863281 62.015625 -96.390625 59.265625 -96.390625 L 55.0625 -96.390625 L 55.0625 -102.421875 L 90.09375 -102.421875 L 90.09375 -96.390625 L 88.40625 -96.390625 C 87.375 -96.390625 86.40625 -96.210938 85.5 -95.859375 C 84.59375 -95.515625 83.671875 -94.910156 82.734375 -94.046875 C 81.796875 -93.179688 80.820312 -92.035156 79.8125 -90.609375 C 78.8125 -89.191406 77.707031 -87.40625 76.5 -85.25 L 52.40625 -42.734375 L 52.40625 -16.328125 C 52.40625 -14.078125 52.707031 -12.273438 53.3125 -10.921875 C 53.914062 -9.566406 54.753906 -8.523438 55.828125 -7.796875 C 56.898438 -7.078125 58.148438 -6.601562 59.578125 -6.375 C 61.003906 -6.144531 62.507812 -6.03125 64.09375 -6.03125 L 67.46875 -6.03125 L 67.46875 0 Z M 22.84375 0 "/></g></g><g style="fill:#1e1c1d;fill-opacity:1;"><g transform="translate(510.978428, 250.453788)"><path style="stroke:none" d="M 51.0625 -16.328125 C 51.0625 -14.078125 51.375 -12.273438 52 -10.921875 C 52.632812 -9.566406 53.476562 -8.523438 54.53125 -7.796875 C 55.582031 -7.078125 56.832031 -6.601562 58.28125 -6.375 C 59.726562 -6.144531 61.25 -6.03125 62.84375 -6.03125 L 66.125 -6.03125 L 66.125 0 L 21.5 0 L 21.5 -6.03125 L 24.796875 -6.03125 C 26.390625 -6.03125 27.894531 -6.132812 29.3125 -6.34375 C 30.738281 -6.550781 31.988281 -6.976562 33.0625 -7.625 C 34.132812 -8.28125 34.984375 -9.25 35.609375 -10.53125 C 36.242188 -11.820312 36.5625 -13.519531 36.5625 -15.625 L 36.5625 -95.265625 L 22.84375 -95.265625 C 20.738281 -95.265625 18.972656 -94.945312 17.546875 -94.3125 C 16.117188 -93.6875 14.945312 -92.835938 14.03125 -91.765625 C 13.125 -90.691406 12.445312 -89.441406 12 -88.015625 C 11.5625 -86.597656 11.25 -85.09375 11.0625 -83.5 L 10.296875 -77.34375 L 2.875 -77.34375 L 3.578125 -102.421875 L 84.34375 -102.421875 L 85.046875 -77.34375 L 77.625 -77.34375 L 76.921875 -83.5 C 76.734375 -85.09375 76.40625 -86.597656 75.9375 -88.015625 C 75.46875 -89.441406 74.789062 -90.691406 73.90625 -91.765625 C 73.019531 -92.835938 71.851562 -93.6875 70.40625 -94.3125 C 68.957031 -94.945312 67.160156 -95.265625 65.015625 -95.265625 L 51.0625 -95.265625 Z M 51.0625 -16.328125 "/></g></g><g style="fill:#1e1c1d;fill-opacity:1;"><g transform="translate(594.298357, 250.453788)"><path style="stroke:none" d="M 66.546875 0 L 66.546875 -6.03125 L 68.4375 -6.03125 C 70.070312 -6.03125 71.601562 -6.144531 73.03125 -6.375 C 74.457031 -6.601562 75.691406 -7.078125 76.734375 -7.796875 C 77.785156 -8.523438 78.625 -9.566406 79.25 -10.921875 C 79.882812 -12.273438 80.203125 -14.078125 80.203125 -16.328125 L 80.203125 -49.953125 L 33.5625 -49.953125 L 33.5625 -16.328125 C 33.5625 -14.078125 33.875 -12.273438 34.5 -10.921875 C 35.132812 -9.566406 35.972656 -8.523438 37.015625 -7.796875 C 38.066406 -7.078125 39.316406 -6.601562 40.765625 -6.375 C 42.210938 -6.144531 43.734375 -6.03125 45.328125 -6.03125 L 47.21875 -6.03125 L 47.21875 0 L 5.46875 0 L 5.46875 -6.03125 L 7.28125 -6.03125 C 8.914062 -6.03125 10.445312 -6.144531 11.875 -6.375 C 13.300781 -6.601562 14.550781 -7.078125 15.625 -7.796875 C 16.695312 -8.523438 17.535156 -9.566406 18.140625 -10.921875 C 18.742188 -12.273438 19.046875 -14.078125 19.046875 -16.328125 L 19.046875 -86.65625 C 19.046875 -88.757812 18.726562 -90.453125 18.09375 -91.734375 C 17.46875 -93.015625 16.617188 -94.003906 15.546875 -94.703125 C 14.472656 -95.410156 13.222656 -95.867188 11.796875 -96.078125 C 10.378906 -96.285156 8.875 -96.390625 7.28125 -96.390625 L 5.46875 -96.390625 L 5.46875 -102.421875 L 47.21875 -102.421875 L 47.21875 -96.390625 L 45.328125 -96.390625 C 43.734375 -96.390625 42.210938 -96.269531 40.765625 -96.03125 C 39.316406 -95.800781 38.066406 -95.320312 37.015625 -94.59375 C 35.972656 -93.875 35.132812 -92.835938 34.5 -91.484375 C 33.875 -90.128906 33.5625 -88.332031 33.5625 -86.09375 L 33.5625 -57.09375 L 80.203125 -57.09375 L 80.203125 -86.09375 C 80.203125 -88.332031 79.882812 -90.128906 79.25 -91.484375 C 78.625 -92.835938 77.785156 -93.875 76.734375 -94.59375 C 75.691406 -95.320312 74.457031 -95.800781 73.03125 -96.03125 C 71.601562 -96.269531 70.070312 -96.390625 68.4375 -96.390625 L 66.546875 -96.390625 L 66.546875 -102.421875 L 108.296875 -102.421875 L 108.296875 -96.390625 L 106.484375 -96.390625 C 104.847656 -96.390625 103.316406 -96.269531 101.890625 -96.03125 C 100.460938 -95.800781 99.210938 -95.320312 98.140625 -94.59375 C 97.066406 -93.875 96.226562 -92.835938 95.625 -91.484375 C 95.019531 -90.128906 94.71875 -88.332031 94.71875 -86.09375 L 94.71875 -15.625 C 94.71875 -13.519531 95.03125 -11.820312 95.65625 -10.53125 C 96.289062 -9.25 97.144531 -8.28125 98.21875 -7.625 C 99.289062 -6.976562 100.535156 -6.550781 101.953125 -6.34375 C 103.378906 -6.132812 104.890625 -6.03125 106.484375 -6.03125 L 108.296875 -6.03125 L 108.296875 0 Z M 66.546875 0 "/></g></g></g></svg>